<svg width="221" height="60" viewBox="0 0 221 60" fill="none" xmlns="http://www.w3.org/2000/svg">
<rect opacity="0.54" width="221" height="60" rx="30" fill="#4A7784"/>
<path d="M78.9858 22.5653C78.9176 21.8778 78.625 21.3437 78.108 20.9631C77.5909 20.5824 76.8892 20.392 76.0028 20.392C75.4006 20.392 74.892 20.4773 74.4773 20.6477C74.0625 20.8125 73.7443 21.0426 73.5227 21.3381C73.3068 21.6335 73.1989 21.9688 73.1989 22.3438C73.1875 22.6562 73.2528 22.929 73.3949 23.1619C73.5426 23.3949 73.7443 23.5966 74 23.767C74.2557 23.9318 74.5511 24.0767 74.8864 24.2017C75.2216 24.321 75.5795 24.4233 75.9602 24.5085L77.5284 24.8835C78.2898 25.054 78.9886 25.2812 79.625 25.5653C80.2614 25.8494 80.8125 26.1989 81.2784 26.6136C81.7443 27.0284 82.1051 27.517 82.3608 28.0795C82.6222 28.642 82.7557 29.2869 82.7614 30.0142C82.7557 31.0824 82.483 32.0085 81.9432 32.7926C81.4091 33.571 80.6364 34.1761 79.625 34.608C78.6193 35.0341 77.4063 35.2472 75.9858 35.2472C74.5767 35.2472 73.3494 35.0312 72.304 34.5994C71.2642 34.1676 70.4517 33.5284 69.8665 32.6818C69.2869 31.8295 68.983 30.7756 68.9545 29.5199H72.5256C72.5653 30.1051 72.733 30.5937 73.0284 30.9858C73.3295 31.3722 73.7301 31.6648 74.2301 31.8636C74.7358 32.0568 75.3068 32.1534 75.9432 32.1534C76.5682 32.1534 77.1108 32.0625 77.571 31.8807C78.0369 31.6989 78.3977 31.446 78.6534 31.1222C78.9091 30.7983 79.0369 30.4261 79.0369 30.0057C79.0369 29.6136 78.9205 29.2841 78.6875 29.017C78.4602 28.75 78.125 28.5227 77.6818 28.3352C77.2443 28.1477 76.7074 27.9773 76.071 27.8239L74.1705 27.3466C72.6989 26.9886 71.5369 26.429 70.6847 25.6676C69.8324 24.9062 69.4091 23.8807 69.4148 22.5909C69.4091 21.5341 69.6903 20.6108 70.2585 19.821C70.8324 19.0312 71.6193 18.4148 72.6193 17.9716C73.6193 17.5284 74.7557 17.3068 76.0284 17.3068C77.3239 17.3068 78.4545 17.5284 79.4205 17.9716C80.392 18.4148 81.1477 19.0312 81.6875 19.821C82.2273 20.6108 82.5057 21.5256 82.5227 22.5653H78.9858ZM84.5788 20.5881V17.5455H98.9141V20.5881H93.5703V35H89.9226V20.5881H84.5788ZM116.518 26.2727C116.518 28.1761 116.157 29.7955 115.435 31.1307C114.719 32.4659 113.742 33.4858 112.504 34.1903C111.271 34.8892 109.884 35.2386 108.344 35.2386C106.793 35.2386 105.401 34.8864 104.168 34.1818C102.935 33.4773 101.961 32.4574 101.245 31.1222C100.529 29.7869 100.171 28.1705 100.171 26.2727C100.171 24.3693 100.529 22.75 101.245 21.4148C101.961 20.0795 102.935 19.0625 104.168 18.3636C105.401 17.6591 106.793 17.3068 108.344 17.3068C109.884 17.3068 111.271 17.6591 112.504 18.3636C113.742 19.0625 114.719 20.0795 115.435 21.4148C116.157 22.75 116.518 24.3693 116.518 26.2727ZM112.776 26.2727C112.776 25.0398 112.592 24 112.222 23.1534C111.859 22.3068 111.344 21.6648 110.68 21.2273C110.015 20.7898 109.237 20.571 108.344 20.571C107.452 20.571 106.674 20.7898 106.009 21.2273C105.344 21.6648 104.827 22.3068 104.458 23.1534C104.094 24 103.913 25.0398 103.913 26.2727C103.913 27.5057 104.094 28.5455 104.458 29.392C104.827 30.2386 105.344 30.8807 106.009 31.3182C106.674 31.7557 107.452 31.9744 108.344 31.9744C109.237 31.9744 110.015 31.7557 110.68 31.3182C111.344 30.8807 111.859 30.2386 112.222 29.392C112.592 28.5455 112.776 27.5057 112.776 26.2727ZM134.652 23.6562H130.919C130.851 23.1733 130.712 22.7443 130.501 22.3693C130.291 21.9886 130.021 21.6648 129.692 21.3977C129.362 21.1307 128.982 20.9261 128.55 20.7841C128.124 20.642 127.661 20.571 127.161 20.571C126.257 20.571 125.47 20.7955 124.8 21.2443C124.129 21.6875 123.609 22.3352 123.24 23.1875C122.871 24.0341 122.686 25.0625 122.686 26.2727C122.686 27.517 122.871 28.5625 123.24 29.4091C123.615 30.2557 124.138 30.8949 124.808 31.3267C125.479 31.7585 126.254 31.9744 127.135 31.9744C127.629 31.9744 128.087 31.9091 128.507 31.7784C128.933 31.6477 129.311 31.4574 129.641 31.2074C129.97 30.9517 130.243 30.642 130.459 30.2784C130.68 29.9148 130.834 29.5 130.919 29.0341L134.652 29.0511C134.555 29.8523 134.314 30.625 133.928 31.3693C133.547 32.108 133.033 32.7699 132.385 33.3551C131.743 33.9347 130.976 34.3949 130.084 34.7358C129.197 35.071 128.195 35.2386 127.075 35.2386C125.518 35.2386 124.126 34.8864 122.899 34.1818C121.678 33.4773 120.712 32.4574 120.001 31.1222C119.297 29.7869 118.945 28.1705 118.945 26.2727C118.945 24.3693 119.303 22.75 120.018 21.4148C120.734 20.0795 121.706 19.0625 122.933 18.3636C124.161 17.6591 125.541 17.3068 127.075 17.3068C128.087 17.3068 129.024 17.4489 129.888 17.733C130.757 18.017 131.527 18.4318 132.197 18.9773C132.868 19.517 133.413 20.179 133.834 20.9631C134.26 21.7472 134.533 22.6449 134.652 23.6562ZM137.298 35V17.5455H140.989V25.2415H141.219L147.5 17.5455H151.923L145.446 25.3608L152 35H147.585L142.804 27.8239L140.989 30.0398V35H137.298ZM153.846 35V21.1818H162.415V22.9766H155.931V27.1868H161.801V28.9748H155.931V35H153.846ZM164.979 35V21.1818H167.064V33.2053H173.325V35H164.979ZM187.169 28.0909C187.169 29.5663 186.899 30.8348 186.359 31.8963C185.819 32.9534 185.079 33.7675 184.139 34.3388C183.204 34.9055 182.14 35.1889 180.948 35.1889C179.751 35.1889 178.683 34.9055 177.743 34.3388C176.807 33.7675 176.07 32.9511 175.53 31.8896C174.99 30.828 174.72 29.5618 174.72 28.0909C174.72 26.6155 174.99 25.3493 175.53 24.2923C176.07 23.2307 176.807 22.4165 177.743 21.8498C178.683 21.2785 179.751 20.9929 180.948 20.9929C182.14 20.9929 183.204 21.2785 184.139 21.8498C185.079 22.4165 185.819 23.2307 186.359 24.2923C186.899 25.3493 187.169 26.6155 187.169 28.0909ZM185.104 28.0909C185.104 26.9664 184.922 26.0195 184.558 25.2504C184.198 24.4767 183.703 23.8919 183.073 23.4961C182.448 23.0958 181.74 22.8956 180.948 22.8956C180.152 22.8956 179.441 23.0958 178.816 23.4961C178.191 23.8919 177.696 24.4767 177.331 25.2504C176.972 26.0195 176.792 26.9664 176.792 28.0909C176.792 29.2154 176.972 30.1645 177.331 30.9382C177.696 31.7074 178.191 32.2921 178.816 32.6925C179.441 33.0883 180.152 33.2862 180.948 33.2862C181.74 33.2862 182.448 33.0883 183.073 32.6925C183.703 32.2921 184.198 31.7074 184.558 30.9382C184.922 30.1645 185.104 29.2154 185.104 28.0909ZM192.307 35L188.474 21.1818H190.667L193.359 31.8828H193.487L196.288 21.1818H198.46L201.26 31.8896H201.388L204.074 21.1818H206.273L202.434 35H200.336L197.428 24.6499H197.32L194.412 35H192.307Z" fill="white"/>
<rect x="28" y="11" width="3.08197" height="29" rx="1.54098" stroke="white" stroke-width="2"/>
<rect x="53.9182" y="11" width="3.08197" height="29" rx="1.54098" stroke="white" stroke-width="2"/>
<rect x="32.5737" y="21.6721" width="20.3607" height="12.7377" stroke="#FFFCFC" stroke-width="2"/>
<path d="M35.1147 16.0328C35.1147 14.376 36.4579 13.0328 38.1147 13.0328H40.2787C41.9355 13.0328 43.2787 14.376 43.2787 16.0328V20.6886H35.1147V16.0328Z" stroke="#FFFCFC" stroke-width="2"/>
<rect x="38.1804" y="12.0328" width="1.52459" height="4.06557" rx="0.762295" fill="white"/>
<path d="M41.7212 29.2459C41.7212 27.589 43.0643 26.2458 44.7212 26.2458H46.8851C48.542 26.2458 49.8851 27.589 49.8851 29.2458V33.9016H41.7212V29.2459Z" stroke="#FFFCFC" stroke-width="2"/>
<rect x="44.7869" y="25.2458" width="1.52459" height="4.06557" rx="0.762295" fill="white"/>
</svg>
