<svg width="291" height="78" viewBox="0 0 291 78" fill="none" xmlns="http://www.w3.org/2000/svg">
<rect opacity="0.54" width="291" height="78" rx="39" fill="#526469"/>
<rect x="25" y="16" width="5.37705" height="43" rx="2" stroke="white" stroke-width="2"/>
<rect x="62.623" y="16" width="5.37705" height="43" rx="2" stroke="white" stroke-width="2"/>
<rect x="31.6394" y="31.4918" width="30.459" height="19.3934" stroke="#FFFCFC" stroke-width="2"/>
<path d="M35.3279 21.9508C35.3279 20.294 36.671 18.9508 38.3279 18.9508H45.082C46.7388 18.9508 48.082 20.294 48.082 21.9508V30.9672H35.3279V21.9508Z" stroke="#FFFCFC" stroke-width="2"/>
<rect x="40.2295" y="17.9508" width="2.21311" height="5.90164" rx="1.10656" fill="white"/>
<path d="M44.918 41.1312C44.918 39.4743 46.2611 38.1312 47.918 38.1312H54.6721C56.3289 38.1312 57.6721 39.4743 57.6721 41.1312V50.1476H44.918V41.1312Z" stroke="#FFFCFC" stroke-width="2"/>
<rect x="49.8196" y="37.1312" width="2.21311" height="5.90164" rx="1.10656" fill="white"/>
<path d="M94.6477 35.4205C94.5568 34.5038 94.1667 33.7917 93.4773 33.2841C92.7879 32.7765 91.8523 32.5227 90.6705 32.5227C89.8674 32.5227 89.1894 32.6364 88.6364 32.8636C88.0833 33.0833 87.6591 33.3902 87.3636 33.7841C87.0758 34.178 86.9318 34.625 86.9318 35.125C86.9167 35.5417 87.0038 35.9053 87.1932 36.2159C87.3902 36.5265 87.6591 36.7955 88 37.0227C88.3409 37.2424 88.7348 37.4356 89.1818 37.6023C89.6288 37.7614 90.1061 37.8977 90.6136 38.0114L92.7045 38.5114C93.7197 38.7386 94.6515 39.0417 95.5 39.4205C96.3485 39.7992 97.0833 40.2652 97.7045 40.8182C98.3258 41.3712 98.8068 42.0227 99.1477 42.7727C99.4962 43.5227 99.6742 44.3826 99.6818 45.3523C99.6742 46.7765 99.3106 48.0114 98.5909 49.0568C97.8788 50.0947 96.8485 50.9015 95.5 51.4773C94.1591 52.0455 92.5417 52.3295 90.6477 52.3295C88.7689 52.3295 87.1326 52.0417 85.7386 51.4659C84.3523 50.8902 83.2689 50.0379 82.4886 48.9091C81.7159 47.7727 81.3106 46.3674 81.2727 44.6932H86.0341C86.0871 45.4735 86.3106 46.125 86.7045 46.6477C87.1061 47.1629 87.6402 47.553 88.3068 47.8182C88.9811 48.0758 89.7424 48.2045 90.5909 48.2045C91.4242 48.2045 92.1477 48.0833 92.7614 47.8409C93.3826 47.5985 93.8636 47.2614 94.2045 46.8295C94.5455 46.3977 94.7159 45.9015 94.7159 45.3409C94.7159 44.8182 94.5606 44.3788 94.25 44.0227C93.947 43.6667 93.5 43.3636 92.9091 43.1136C92.3258 42.8636 91.6098 42.6364 90.7614 42.4318L88.2273 41.7955C86.2652 41.3182 84.7159 40.572 83.5795 39.5568C82.4432 38.5417 81.8788 37.1742 81.8864 35.4545C81.8788 34.0455 82.2538 32.8144 83.0114 31.7614C83.7765 30.7083 84.8258 29.8864 86.1591 29.2955C87.4924 28.7045 89.0076 28.4091 90.7045 28.4091C92.4318 28.4091 93.9394 28.7045 95.2273 29.2955C96.5227 29.8864 97.5303 30.7083 98.25 31.7614C98.9697 32.8144 99.3409 34.0341 99.3636 35.4205H94.6477ZM102.105 32.7841V28.7273H121.219V32.7841H114.094V52H109.23V32.7841H102.105ZM144.69 40.3636C144.69 42.9015 144.209 45.0606 143.247 46.8409C142.293 48.6212 140.99 49.9811 139.338 50.9205C137.694 51.8523 135.846 52.3182 133.793 52.3182C131.724 52.3182 129.868 51.8485 128.224 50.9091C126.58 49.9697 125.281 48.6098 124.327 46.8295C123.372 45.0492 122.895 42.8939 122.895 40.3636C122.895 37.8258 123.372 35.6667 124.327 33.8864C125.281 32.1061 126.58 30.75 128.224 29.8182C129.868 28.8788 131.724 28.4091 133.793 28.4091C135.846 28.4091 137.694 28.8788 139.338 29.8182C140.99 30.75 142.293 32.1061 143.247 33.8864C144.209 35.6667 144.69 37.8258 144.69 40.3636ZM139.702 40.3636C139.702 38.7197 139.455 37.3333 138.963 36.2045C138.478 35.0758 137.793 34.2197 136.906 33.6364C136.02 33.053 134.982 32.7614 133.793 32.7614C132.603 32.7614 131.565 33.053 130.679 33.6364C129.793 34.2197 129.103 35.0758 128.611 36.2045C128.126 37.3333 127.884 38.7197 127.884 40.3636C127.884 42.0076 128.126 43.3939 128.611 44.5227C129.103 45.6515 129.793 46.5076 130.679 47.0909C131.565 47.6742 132.603 47.9659 133.793 47.9659C134.982 47.9659 136.02 47.6742 136.906 47.0909C137.793 46.5076 138.478 45.6515 138.963 44.5227C139.455 43.3939 139.702 42.0076 139.702 40.3636ZM168.869 36.875H163.892C163.801 36.2311 163.616 35.6591 163.335 35.1591C163.055 34.6515 162.695 34.2197 162.256 33.8636C161.816 33.5076 161.309 33.2348 160.733 33.0455C160.165 32.8561 159.547 32.7614 158.881 32.7614C157.676 32.7614 156.627 33.0606 155.733 33.6591C154.839 34.25 154.146 35.1136 153.653 36.25C153.161 37.3788 152.915 38.75 152.915 40.3636C152.915 42.0227 153.161 43.4167 153.653 44.5455C154.153 45.6742 154.85 46.5265 155.744 47.1023C156.638 47.678 157.672 47.9659 158.847 47.9659C159.506 47.9659 160.116 47.8788 160.676 47.7045C161.244 47.5303 161.748 47.2765 162.188 46.9432C162.627 46.6023 162.991 46.1894 163.278 45.7045C163.574 45.2197 163.778 44.6667 163.892 44.0455L168.869 44.0682C168.741 45.1364 168.419 46.1667 167.903 47.1591C167.396 48.1439 166.71 49.0265 165.847 49.8068C164.991 50.5795 163.968 51.1932 162.778 51.6477C161.597 52.0947 160.259 52.3182 158.767 52.3182C156.691 52.3182 154.835 51.8485 153.199 50.9091C151.57 49.9697 150.282 48.6098 149.335 46.8295C148.396 45.0492 147.926 42.8939 147.926 40.3636C147.926 37.8258 148.403 35.6667 149.358 33.8864C150.313 32.1061 151.608 30.75 153.244 29.8182C154.881 28.8788 156.722 28.4091 158.767 28.4091C160.116 28.4091 161.366 28.5985 162.517 28.9773C163.676 29.3561 164.703 29.9091 165.597 30.6364C166.491 31.3561 167.218 32.2386 167.778 33.2841C168.347 34.3295 168.71 35.5265 168.869 36.875ZM172.398 52V28.7273H177.318V38.9886H177.625L186 28.7273H191.898L183.261 39.1477L192 52H186.114L179.739 42.4318L177.318 45.3864V52H172.398ZM194.675 52V31.6364H207.303V34.2812H197.747V40.4858H206.398V43.1207H197.747V52H194.675ZM211.081 52V31.6364H214.153V49.3551H223.381V52H211.081ZM243.782 41.8182C243.782 43.9924 243.384 45.8617 242.588 47.4261C241.793 48.9839 240.703 50.1837 239.317 51.0256C237.938 51.8608 236.371 52.2784 234.614 52.2784C232.851 52.2784 231.276 51.8608 229.891 51.0256C228.512 50.1837 227.425 48.9806 226.63 47.4162C225.834 45.8518 225.436 43.9858 225.436 41.8182C225.436 39.6439 225.834 37.7779 226.63 36.2202C227.425 34.6558 228.512 33.456 229.891 32.6207C231.276 31.7789 232.851 31.358 234.614 31.358C236.371 31.358 237.938 31.7789 239.317 32.6207C240.703 33.456 241.793 34.6558 242.588 36.2202C243.384 37.7779 243.782 39.6439 243.782 41.8182ZM240.739 41.8182C240.739 40.161 240.471 38.7656 239.934 37.6321C239.403 36.492 238.674 35.6302 237.746 35.0469C236.825 34.4569 235.781 34.1619 234.614 34.1619C233.441 34.1619 232.393 34.4569 231.472 35.0469C230.551 35.6302 229.821 36.492 229.284 37.6321C228.754 38.7656 228.489 40.161 228.489 41.8182C228.489 43.4754 228.754 44.8741 229.284 46.0142C229.821 47.1477 230.551 48.0095 231.472 48.5994C232.393 49.1828 233.441 49.4744 234.614 49.4744C235.781 49.4744 236.825 49.1828 237.746 48.5994C238.674 48.0095 239.403 47.1477 239.934 46.0142C240.471 44.8741 240.739 43.4754 240.739 41.8182ZM251.353 52L245.706 31.6364H248.937L252.904 47.4062H253.093L257.22 31.6364H260.422L264.548 47.4162H264.737L268.694 31.6364H271.936L266.278 52H263.186L258.9 36.7472H258.741L254.456 52H251.353Z" fill="white"/>
</svg>
